<svg width="41" height="41" viewBox="0 0 41 41" fill="none" xmlns="http://www.w3.org/2000/svg">
<rect x="20.7878" y="0.75738" width="28.2433" height="28.2433" rx="14.1217" transform="rotate(45 20.7878 0.75738)" fill="#E9E9E9"/>
<path fill-rule="evenodd" clip-rule="evenodd" d="M25.4669 16.0493C24.9952 15.5775 24.2304 15.5775 23.7587 16.0493L20.7878 19.0202L17.8169 16.0493C17.3452 15.5776 16.5803 15.5776 16.1086 16.0493C15.6369 16.521 15.6369 17.2858 16.1086 17.7576L19.0795 20.7284L16.1086 23.6993C15.6369 24.171 15.6369 24.9359 16.1086 25.4076C16.5804 25.8793 17.3452 25.8793 17.8169 25.4076L20.7878 22.4367L23.7586 25.4076C24.2304 25.8793 24.9952 25.8793 25.4669 25.4076C25.9386 24.9359 25.9386 24.171 25.4669 23.6993L22.496 20.7284L25.4669 17.7576C25.9387 17.2858 25.9387 16.521 25.4669 16.0493Z" fill="white"/>
</svg>
