<?xml version="1.0" standalone="no"?>
<!DOCTYPE svg PUBLIC "-//W3C//DTD SVG 20010904//EN"
 "http://www.w3.org/TR/2001/REC-SVG-20010904/DTD/svg10.dtd">
<svg version="1.0" xmlns="http://www.w3.org/2000/svg"
 width="540.000000pt" height="160.000000pt" viewBox="0 0 540.000000 160.000000"
 preserveAspectRatio="xMidYMid meet">

<g transform="translate(0.000000,160.000000) scale(0.100000,-0.100000)"
fill="#000000" stroke="none">
<path d="M2552 1519 c-26 -13 -55 -39 -70 -62 l-27 -41 -3 -468 -3 -468 116 0
115 0 0 93 0 93 50 49 c43 43 52 47 64 35 7 -8 59 -72 115 -143 l102 -127 144
0 c80 0 145 3 145 6 0 6 -25 39 -214 278 l-126 159 210 217 c116 120 210 220
210 222 0 9 -153 -19 -205 -37 -137 -47 -198 -90 -397 -281 -88 -85 -163 -152
-166 -149 -3 2 11 29 31 60 l37 55 0 265 0 265 -42 0 c-24 0 -62 -10 -86 -21z"/>
<path d="M485 1461 c-52 -24 -91 -67 -102 -111 -4 -19 -7 -223 -5 -452 l3
-418 277 0 c314 0 373 8 490 66 171 84 262 235 262 437 0 243 -136 413 -384
479 -103 27 -482 26 -541 -1z m463 -196 c113 -34 189 -132 199 -257 11 -129
-45 -236 -150 -292 -56 -29 -65 -30 -208 -34 l-149 -4 0 301 0 301 128 0 c86
0 145 -5 180 -15z"/>
<path d="M4935 1437 c-43 -43 -46 -82 -9 -126 21 -26 33 -31 68 -31 52 0 81
20 96 64 9 28 8 40 -4 64 -20 39 -38 52 -80 59 -31 5 -40 1 -71 -30z m98 11
c33 -17 46 -39 47 -77 1 -100 -135 -111 -164 -14 -9 28 18 81 47 93 30 12 45
12 70 -2z"/>
<path d="M4963 1375 c0 -27 2 -40 4 -27 5 27 27 29 46 2 12 -17 13 -16 13 20
-1 21 -4 41 -8 45 -4 4 -4 -2 -1 -14 4 -17 1 -21 -20 -21 -19 0 -27 6 -30 23
-2 12 -4 0 -4 -28z"/>
<path d="M1825 1253 c-100 -22 -197 -81 -249 -151 -94 -128 -101 -324 -16
-447 36 -53 98 -109 149 -135 136 -69 357 -67 470 4 46 29 107 97 129 142 21
44 13 50 -78 60 -56 6 -69 4 -100 -15 -77 -48 -125 -64 -185 -65 -98 -1 -175
53 -191 132 l-6 32 296 0 296 0 0 33 c0 202 -112 354 -295 403 -47 13 -176 17
-220 7z m183 -177 c37 -19 68 -55 87 -98 8 -21 15 -40 15 -43 0 -3 -83 -5
-184 -5 l-185 0 10 33 c12 42 38 77 79 105 39 26 134 31 178 8z"/>
<path d="M3561 1244 c-80 -21 -147 -62 -201 -121 -68 -75 -94 -144 -94 -258 0
-114 25 -183 94 -258 92 -100 209 -143 371 -135 245 13 401 166 401 393 0 236
-178 397 -439 394 -43 0 -102 -7 -132 -15z m244 -208 c49 -37 75 -96 75 -169
0 -128 -69 -207 -182 -207 -70 0 -116 25 -152 84 -25 41 -29 56 -29 120 0 93
30 152 95 185 61 31 142 25 193 -13z"/>
<path d="M4425 1246 c-70 -19 -94 -30 -142 -65 -58 -42 -83 -94 -83 -172 0
-139 65 -189 290 -225 155 -24 191 -44 175 -95 -17 -52 -99 -66 -246 -43
l-107 17 -35 -22 c-41 -25 -87 -76 -87 -96 0 -38 201 -79 359 -73 180 8 276
52 325 150 62 123 8 243 -128 287 -33 11 -105 27 -160 36 -123 20 -156 35
-156 74 0 16 9 36 21 47 19 17 38 19 168 19 160 0 174 4 216 59 39 51 34 62
-42 87 -86 27 -292 36 -368 15z"/>
<path d="M1970 329 c-324 -17 -634 -78 -880 -173 -94 -37 -203 -86 -198 -91 2
-1 57 6 123 16 66 10 181 23 255 30 164 15 729 16 960 0 91 -6 282 -18 425
-27 324 -21 865 -24 1020 -6 148 18 328 56 433 94 93 32 286 127 278 136 -3 2
-31 0 -63 -6 -251 -48 -638 -47 -1328 3 -440 32 -737 39 -1025 24z"/>
</g>
</svg>
