<?xml version="1.0" standalone="no"?>
<!DOCTYPE svg PUBLIC "-//W3C//DTD SVG 20010904//EN"
 "http://www.w3.org/TR/2001/REC-SVG-20010904/DTD/svg10.dtd">
<svg version="1.0" xmlns="http://www.w3.org/2000/svg"
 width="712.000000pt" height="218.000000pt" viewBox="0 0 712.000000 218.000000"
 preserveAspectRatio="xMidYMid meet">

<g transform="translate(0.000000,218.000000) scale(0.100000,-0.100000)"
fill="#000000" stroke="none">
<path d="M0 1090 l0 -1090 3560 0 3560 0 0 1090 0 1090 -3560 0 -3560 0 0
-1090z m2518 353 c-4 -620 -4 -629 -27 -708 -56 -197 -176 -374 -336 -495
-359 -272 -864 -231 -1173 95 -147 154 -223 310 -252 520 -66 466 255 917 719
1011 119 23 305 15 419 -18 45 -14 85 -27 87 -30 3 -3 4 -112 3 -243 l-3 -238
-32 27 c-51 43 -158 88 -239 99 -289 42 -555 -196 -554 -497 1 -238 183 -450
418 -486 199 -31 407 72 501 249 61 116 61 109 61 754 l0 587 205 0 206 0 -3
-627z m2594 5 l3 -623 28 -65 c54 -129 156 -226 282 -271 40 -15 94 -23 163
-27 l102 -5 -2 -196 -3 -196 -115 2 c-147 3 -244 27 -380 95 -92 46 -117 64
-206 153 -106 105 -159 183 -207 305 -55 141 -57 166 -57 835 l0 615 195 0
194 0 3 -622z m1166 425 l-3 -198 -192 -3 -193 -2 0 200 0 200 195 0 195 0 -2
-197z m-2408 -8 c92 -24 233 -94 315 -157 137 -105 260 -292 306 -463 23 -88
37 -311 25 -409 l-7 -56 -600 0 -599 0 0 200 0 200 390 0 c324 0 390 2 390 14
0 27 -55 112 -105 162 -96 96 -200 134 -373 134 -172 0 -279 -43 -378 -154
-94 -103 -129 -216 -122 -391 6 -124 28 -201 80 -275 106 -151 254 -218 458
-207 151 8 242 44 337 136 l33 31 220 0 c153 0 220 -3 220 -11 0 -6 -19 -47
-42 -92 -114 -219 -307 -372 -555 -439 -115 -31 -373 -31 -488 1 -166 45 -300
125 -416 249 -114 122 -192 270 -223 424 -20 97 -21 320 -2 420 67 350 332
618 686 693 90 20 361 13 450 -10z m2408 -1072 l-3 -728 -192 -3 -193 -2 0
730 0 730 195 0 195 0 -2 -727z"/>
</g>
</svg>
