<svg width="30" height="31" viewBox="0 0 30 31" fill="none" xmlns="http://www.w3.org/2000/svg">
<path d="M15 3.66211C19.0078 3.66211 19.4824 3.67969 21.0586 3.75C22.5234 3.81445 23.3145 4.06055 23.8418 4.26563C24.5391 4.53516 25.043 4.86328 25.5645 5.38477C26.0918 5.91211 26.4141 6.41016 26.6836 7.10742C26.8887 7.63477 27.1348 8.43164 27.1992 9.89062C27.2695 11.4727 27.2871 11.9473 27.2871 15.9492C27.2871 19.957 27.2695 20.4316 27.1992 22.0078C27.1348 23.4727 26.8887 24.2637 26.6836 24.791C26.4141 25.4883 26.0859 25.9922 25.5645 26.5137C25.0371 27.041 24.5391 27.3633 23.8418 27.6328C23.3145 27.8379 22.5176 28.084 21.0586 28.1484C19.4766 28.2188 19.002 28.2363 15 28.2363C10.9922 28.2363 10.5176 28.2188 8.94141 28.1484C7.47656 28.084 6.68555 27.8379 6.1582 27.6328C5.46094 27.3633 4.95703 27.0352 4.43555 26.5137C3.9082 25.9863 3.58594 25.4883 3.31641 24.791C3.11133 24.2637 2.86523 23.4668 2.80078 22.0078C2.73047 20.4258 2.71289 19.9512 2.71289 15.9492C2.71289 11.9414 2.73047 11.4668 2.80078 9.89062C2.86523 8.42578 3.11133 7.63477 3.31641 7.10742C3.58594 6.41016 3.91406 5.90625 4.43555 5.38477C4.96289 4.85742 5.46094 4.53516 6.1582 4.26563C6.68555 4.06055 7.48242 3.81445 8.94141 3.75C10.5176 3.67969 10.9922 3.66211 15 3.66211ZM15 0.960938C10.9277 0.960938 10.418 0.978516 8.81836 1.04883C7.22461 1.11914 6.12891 1.37695 5.17969 1.74609C4.18945 2.13281 3.35156 2.64258 2.51953 3.48047C1.68164 4.3125 1.17188 5.15039 0.785156 6.13477C0.416016 7.08984 0.158203 8.17969 0.0878906 9.77344C0.0175781 11.3789 0 11.8887 0 15.9609C0 20.0332 0.0175781 20.543 0.0878906 22.1426C0.158203 23.7363 0.416016 24.832 0.785156 25.7812C1.17188 26.7715 1.68164 27.6094 2.51953 28.4414C3.35156 29.2734 4.18945 29.7891 5.17383 30.1699C6.12891 30.5391 7.21875 30.7969 8.8125 30.8672C10.4121 30.9375 10.9219 30.9551 14.9941 30.9551C19.0664 30.9551 19.5762 30.9375 21.1758 30.8672C22.7695 30.7969 23.8652 30.5391 24.8145 30.1699C25.7988 29.7891 26.6367 29.2734 27.4688 28.4414C28.3008 27.6094 28.8164 26.7715 29.1973 25.7871C29.5664 24.832 29.8242 23.7422 29.8945 22.1484C29.9648 20.5488 29.9824 20.0391 29.9824 15.9668C29.9824 11.8945 29.9648 11.3848 29.8945 9.78516C29.8242 8.19141 29.5664 7.0957 29.1973 6.14648C28.8281 5.15039 28.3184 4.3125 27.4805 3.48047C26.6484 2.64844 25.8105 2.13281 24.8262 1.75195C23.8711 1.38281 22.7813 1.125 21.1875 1.05469C19.582 0.978516 19.0723 0.960938 15 0.960938Z" fill="white"/>
<path d="M15 8.25586C10.7461 8.25586 7.29492 11.707 7.29492 15.9609C7.29492 20.2148 10.7461 23.666 15 23.666C19.2539 23.666 22.7051 20.2148 22.7051 15.9609C22.7051 11.707 19.2539 8.25586 15 8.25586ZM15 20.959C12.2402 20.959 10.002 18.7207 10.002 15.9609C10.002 13.2012 12.2402 10.9629 15 10.9629C17.7598 10.9629 19.998 13.2012 19.998 15.9609C19.998 18.7207 17.7598 20.959 15 20.959Z" fill="white"/>
<path d="M24.8086 7.95117C24.8086 8.94727 24 9.75 23.0098 9.75C22.0137 9.75 21.2109 8.94141 21.2109 7.95117C21.2109 6.95508 22.0195 6.15234 23.0098 6.15234C24 6.15234 24.8086 6.96094 24.8086 7.95117Z" fill="white"/>
</svg>
