<svg width="196" height="49" viewBox="0 0 196 49" fill="none" xmlns="http://www.w3.org/2000/svg">
<path fill-rule="evenodd" clip-rule="evenodd" d="M44.999 0.175418C44.6483 0.304679 44.3493 0.411466 44.3346 0.412741C44.3198 0.414016 44.1608 0.652934 43.9811 0.943493C43.7824 1.26513 43.637 1.81071 43.6096 2.33811L43.5645 3.20437L42.9572 3.25441C42.4021 3.30015 42.3541 3.34128 42.3994 3.73257C42.442 4.10154 42.5314 4.16753 43.0465 4.21008L43.6442 4.25965V7.43762V10.6158H44.202H44.7599V7.42806V4.24037H45.5568C46.3327 4.24037 46.3537 4.22793 46.3537 3.77098C46.3537 3.32406 46.3174 3.2992 45.5967 3.25298L44.8396 3.20437L44.7906 2.52873C44.7275 1.65817 45.2605 1.05267 46.0901 1.05267C46.5482 1.05267 46.6551 0.984295 46.7426 0.635402C46.8003 0.405888 46.826 0.197093 46.7999 0.171432C46.6016 -0.0228585 45.5308 -0.0204662 44.999 0.175418ZM22.542 0.866989C22.4969 0.940146 22.4747 3.14555 22.4927 5.76807L22.5257 10.5361L23.1185 10.5853L23.7112 10.6344L23.756 8.6727L23.8008 6.71083L25.7257 6.63114C27.4721 6.55878 27.71 6.51208 28.2908 6.12732C29.1 5.59131 29.459 4.84252 29.459 3.69033C29.459 2.72095 29.2298 2.13346 28.6351 1.57832C27.8901 0.882608 27.2237 0.733901 24.8513 0.733901C23.6264 0.733901 22.5872 0.793831 22.542 0.866989ZM78.5888 24.6815L78.6292 48.4696H79.3464H80.0636L80.1039 24.6815L80.1444 0.893286H79.3464H78.5483L78.5888 24.6815ZM144.991 1.38292C142.705 1.71874 139.632 2.73577 138.007 3.69447C135.682 5.06646 133.611 6.99007 132.135 9.14942C129.481 13.0328 128.254 17.2033 128.021 23.1275C127.788 29.0669 128.703 34.1282 130.749 38.2094C133.739 44.1721 138.626 47.3849 145.752 48.0721C148.921 48.3777 153.732 47.8764 156.382 46.9646C157.532 46.5691 159.208 45.682 159.31 45.4147C159.38 45.2321 157.82 38.5181 157.672 38.365C157.638 38.3301 157.044 38.5604 156.352 38.8767C154.094 39.9089 152.783 40.1687 149.794 40.1756C147.51 40.1808 146.998 40.1333 145.895 39.8141C143.316 39.0675 141.291 37.6017 139.866 35.4506C137.89 32.4688 137.152 29.5038 137.153 24.5619C137.154 18.8056 138.218 15.1687 140.679 12.5107C143.134 9.85964 145.773 8.90859 150.193 9.08327C152.716 9.18305 154.778 9.50118 156.094 9.99336C156.586 10.1774 157.023 10.294 157.065 10.2522C157.191 10.1256 158.72 3.48425 158.72 3.06092C158.72 2.68923 155.455 1.79158 152.835 1.44269C151.022 1.20122 146.464 1.16647 144.991 1.38292ZM179.36 1.31167C175.43 1.90442 172.34 3.09503 169.793 4.99824C165.286 8.36604 162.526 13.4842 161.65 20.0991C161.292 22.8065 161.417 28.584 161.892 31.2451C163.45 39.9811 168.234 45.6312 175.659 47.5068C181.801 49.0581 189.863 47.7392 194.247 44.4659L195.062 43.8574L195.021 33.8112L194.98 23.765L186.732 23.7237L178.484 23.6824V26.3716V29.0607L180.197 29.2461C181.139 29.3481 183.291 29.5857 184.979 29.774L188.047 30.1165V34.3899V38.6635L187.449 39.0392C186.209 39.8182 184.919 40.14 182.701 40.2229C180.371 40.3101 178.809 40.0272 177.16 39.2194C173.907 37.6265 171.662 34.11 170.806 29.2638C170.478 27.4092 170.531 21.4343 170.892 19.621C171.239 17.8724 172.079 15.5828 172.864 14.2424C173.734 12.7588 175.482 11.0957 176.905 10.3972C178.977 9.381 180.241 9.13284 183.425 9.11674C186.471 9.10144 188.17 9.30657 190.178 9.93199C190.867 10.147 191.485 10.2632 191.55 10.1904C191.775 9.93853 193.339 3.09343 193.203 2.957C193.025 2.77945 189.784 1.94522 187.958 1.60733C186.575 1.3512 180.486 1.14177 179.36 1.31167ZM62.534 1.50166C62.4887 1.54692 62.4516 1.96642 62.4516 2.43406V3.28406H61.8141C61.2119 3.28406 61.1765 3.31067 61.1765 3.76221C61.1765 4.21247 61.2132 4.24037 61.8035 4.24037H62.4306L62.4809 6.93875C62.5265 9.38419 62.5627 9.67937 62.8654 10.0866C63.5279 10.978 65.1611 10.96 65.1611 10.0613C65.1611 9.713 65.0912 9.65945 64.6352 9.65945C63.7696 9.65945 63.7267 9.52238 63.7267 6.75865V4.24037H64.3642C64.9664 4.24037 65.0017 4.21375 65.0017 3.76221C65.0017 3.31163 64.9654 3.28406 64.3722 3.28406H63.7426L63.6948 2.3676C63.6471 1.45448 63.6451 1.45113 63.1317 1.43519C62.8481 1.42643 62.5793 1.45623 62.534 1.50166ZM102.022 1.55091C99.7385 1.68655 96.0889 2.09808 94.727 2.37349L93.7707 2.56683V24.8807V47.1946L98.1139 47.237L102.457 47.2794V39.5533V31.8272L105.366 31.9228C108.651 32.0309 110.716 31.8538 113.286 31.244C119.394 29.7947 123.593 25.2831 124.463 19.237C124.738 17.3263 124.573 13.4557 124.147 11.8111C123.01 7.42487 119.886 4.20196 115.277 2.66278C112.242 1.64893 107.322 1.23628 102.022 1.55091ZM27.071 1.94905C27.8396 2.2565 28.1839 2.82885 28.1839 3.79855C28.1839 5.18105 27.3882 5.67483 25.1607 5.67483H23.7211V3.78883C23.7211 2.75139 23.7689 1.85486 23.8274 1.79652C24.0456 1.57832 26.4241 1.69021 27.071 1.94905ZM32.567 3.38048C31.3606 4.03938 30.7334 5.06678 30.6116 6.58348C30.5125 7.81792 30.7739 8.80419 31.4018 9.56621C32.0913 10.4025 32.7091 10.6743 33.9217 10.6743C35.0084 10.6743 35.6796 10.4301 36.2127 9.84115C36.7921 9.2009 36.0851 8.57133 35.4533 9.16488C34.7155 9.85804 33.3503 9.89183 32.613 9.23532C32.2372 8.90061 31.8497 8.06879 31.8497 7.59669C31.8497 7.29258 31.9681 7.27489 34.2803 7.23297L36.711 7.18898L36.6703 6.31237C36.6171 5.1648 36.1174 4.09214 35.4105 3.60777C34.6872 3.11224 33.266 2.9986 32.567 3.38048ZM40.1377 3.38877C39.9186 3.54019 39.6854 3.7399 39.6197 3.83266C39.5475 3.93451 39.4613 3.85944 39.4018 3.64267C39.3247 3.36088 39.1883 3.28406 38.7643 3.28406H38.2251V6.94991V10.6158H38.7724H39.3198L39.3701 7.91865C39.4186 5.32084 39.4347 5.2064 39.8049 4.81272C40.0721 4.52869 40.4273 4.37234 40.9689 4.30045C41.7271 4.19988 41.7472 4.18347 41.7002 3.70069C41.6573 3.25935 41.59 3.19926 41.094 3.15894C40.7598 3.13169 40.3765 3.22397 40.1377 3.38877ZM49.3024 3.34909C48.0177 3.91841 47.3188 5.16129 47.3135 6.88631C47.3097 8.10178 47.5031 8.85503 47.9892 9.51855C49.0478 10.9634 51.6547 11.1063 52.8839 9.78711C53.2862 9.35534 53.2882 9.2358 52.8971 9.02653C52.6518 8.8952 52.4636 8.94413 51.9982 9.26003C51.1566 9.8311 50.2937 9.8539 49.4407 9.32729C48.9533 9.02653 48.7013 8.59524 48.4936 7.70698L48.3911 7.26868H50.879H53.3667L53.3657 6.59129C53.3638 5.09212 52.6717 3.76237 51.6772 3.34685C51.0135 3.06953 49.9308 3.07048 49.3024 3.34909ZM56.2909 3.45253C54.9369 4.12274 54.2611 5.87725 54.5985 7.84645C54.906 9.64192 56.0458 10.6953 57.6688 10.6841C58.7587 10.6766 59.7398 10.1975 60.2041 9.44635C60.7003 8.64353 60.6526 8.22499 60.065 8.22499C59.7016 8.22499 59.5342 8.33432 59.3485 8.69342C59.0047 9.35837 58.4992 9.65945 57.7265 9.65945C56.3758 9.65945 55.6449 8.47825 55.7984 6.54427C55.898 5.28912 56.2641 4.59755 56.9892 4.29456C58.0229 3.86262 58.9971 4.30954 59.4128 5.40642C59.5509 5.7711 59.6651 5.84585 60.021 5.80489C61.016 5.69045 60.4067 4.13868 59.1093 3.48329C58.2129 3.03048 57.1667 3.019 56.2909 3.45253ZM34.533 4.30651C35.0436 4.57045 35.352 5.08511 35.401 5.75452L35.4359 6.23268H33.6826H31.9294L31.9783 5.77492C32.0467 5.13531 32.4654 4.5542 33.0375 4.30508C33.6685 4.0303 33.9993 4.03061 34.533 4.30651ZM51.5769 4.6095C51.8026 4.83519 51.992 5.25644 52.0447 5.65044L52.1335 6.31237H50.3594C48.6028 6.31237 48.5851 6.3087 48.5851 5.93749C48.5851 5.45424 49.2002 4.54288 49.7056 4.27702C50.2421 3.99491 51.1179 4.15047 51.5769 4.6095ZM110.308 9.48412C112.93 10.1674 114.656 11.803 115.279 14.1955C115.759 16.0366 115.503 18.8222 114.713 20.3714C113.951 21.8642 112.211 23.2553 110.472 23.762C108.757 24.2613 105.721 24.4593 103.437 24.2205L102.457 24.118V16.7392V9.36028L103.135 9.27135C103.507 9.22241 104.063 9.15276 104.37 9.11658C105.703 8.95927 109.099 9.1695 110.308 9.48412ZM40.1377 22.1712V27.3512H40.7753H41.4128V22.1712V16.9911H40.7753H40.1377V22.1712ZM3.79705 17.4494C2.47559 17.8826 1.591 18.7465 1.16975 20.0148C0.956014 20.6584 0.908995 21.2571 0.952826 22.7787C1.00542 24.6061 1.0381 24.7733 1.5035 25.5979C1.7896 26.1049 2.28289 26.6762 2.67338 26.9527C3.29052 27.3899 3.46011 27.4308 4.64912 27.4307C5.73357 27.4305 6.0619 27.3663 6.62485 27.0439C7.42767 26.5844 8.07828 25.7046 8.20834 24.9027L8.30254 24.3228H7.66181C7.05949 24.3228 7.01503 24.3552 6.91955 24.8646C6.76017 25.7146 6.28839 26.1876 5.41321 26.3754C4.40303 26.592 3.57997 26.3654 2.97558 25.7041C2.36003 25.0308 2.20782 24.3789 2.1914 22.3474C2.17945 20.8642 2.22631 20.5438 2.54954 19.8924C3.09193 18.7995 3.79816 18.3807 4.96056 18.4621C6.03369 18.5372 6.55153 18.9353 6.89995 19.953C7.09567 20.5249 7.16724 20.5813 7.75186 20.6256L8.39004 20.6739L8.23735 19.9943C8.15335 19.6205 8.00241 19.2044 7.90184 19.0694C7.43867 18.4482 6.86919 17.8998 6.47168 17.6921C5.94173 17.4153 4.34342 17.2702 3.79705 17.4494ZM48.1388 17.5012C48.0336 17.6064 47.9476 17.8431 47.9476 18.0271C47.9476 18.7273 48.8975 19.0333 49.2171 18.4361C49.4412 18.0173 49.4252 17.8541 49.1316 17.5603C48.8333 17.2621 48.4036 17.2364 48.1388 17.5012ZM43.8036 19.1428V20.0195H43.166C42.5639 20.0195 42.5285 20.0461 42.5285 20.4976C42.5285 20.9492 42.5639 20.9758 43.166 20.9758H43.8036V23.4756C43.8036 25.6794 43.8428 26.0563 44.1341 26.6583C44.4854 27.384 44.9628 27.5985 45.9699 27.4838C46.3657 27.4385 46.4334 27.3617 46.4334 26.9575C46.4334 26.5316 46.3796 26.4816 45.896 26.4572C45.6003 26.4423 45.2965 26.3325 45.221 26.2133C45.1454 26.0939 45.0825 24.8668 45.0811 23.4861L45.0787 20.9758H45.7162C46.3184 20.9758 46.3537 20.9492 46.3537 20.4976C46.3537 20.0461 46.3184 20.0195 45.7162 20.0195H45.0787V19.1428V18.2662H44.4411H43.8036V19.1428ZM11.8469 20.0419C11.1412 20.3011 10.2124 21.2612 9.91551 22.039C9.72122 22.5476 9.67309 23.068 9.72632 24.0825C9.78848 25.267 9.85829 25.5294 10.2646 26.1062C11.4387 27.7734 13.8942 27.9836 15.2152 26.5298C15.9109 25.7643 16.1344 25.0981 16.1425 23.765C16.1522 22.1833 15.6996 21.138 14.7071 20.4506C13.9715 19.9409 12.64 19.7507 11.8469 20.0419ZM20.2814 20.0233C20.0113 20.1062 19.6595 20.3186 19.4996 20.4952C19.1117 20.9238 18.9396 20.9001 18.9396 20.4179C18.9396 20.0689 18.8705 20.0195 18.3817 20.0195H17.8239V23.6853V27.3512H18.3817H18.9396V24.7568C18.9396 22.6638 18.9877 22.0937 19.1884 21.8073C19.5137 21.3428 20.2389 20.9758 20.8313 20.9758C22.1241 20.9758 22.2866 21.393 22.2866 24.7133V27.3512H22.9439H23.6012L23.5281 24.5221C23.4482 21.4364 23.296 20.7778 22.5487 20.2882C22.0321 19.9496 20.9376 19.8218 20.2814 20.0233ZM26.9885 20.0714C26.128 20.4082 25.8384 20.638 25.5747 21.1936C25.1839 22.0172 25.2491 22.5024 25.8363 23.1431C26.2528 23.5976 26.6275 23.7902 27.7008 24.101C29.1572 24.5229 29.6183 24.8227 29.6183 25.348C29.6183 26.2608 28.5509 26.7624 27.365 26.4071C26.8941 26.2661 26.6705 26.0807 26.4743 25.6693C26.2534 25.206 26.1292 25.1198 25.6839 25.1198C25.2421 25.1198 25.1557 25.1784 25.1562 25.4784C25.158 26.5458 26.5197 27.5105 28.0245 27.5105C30.3874 27.5105 31.6253 25.5468 30.2128 24.039C30.0131 23.8259 29.3083 23.5027 28.51 23.2582C26.9386 22.7768 26.59 22.5333 26.59 21.9165C26.59 21.3347 27.1122 20.9758 27.9588 20.9758C28.651 20.9758 29.459 21.4474 29.459 21.8513C29.459 22.1233 30.3899 22.3399 30.6107 22.1192C30.7014 22.0285 30.7257 21.7617 30.6655 21.521C30.3638 20.3194 28.3668 19.5321 26.9885 20.0714ZM53.8115 20.0175C53.5742 20.0891 53.1617 20.303 52.895 20.493L52.4104 20.8381V20.4288C52.4104 20.0673 52.3452 20.0195 51.8525 20.0195H51.2947V23.6853V27.3512H51.8525H52.4104V24.7239V22.0966L52.8487 21.6103C53.3184 21.0894 54.1481 20.8573 54.8827 21.0418C55.5957 21.2206 55.7574 21.9152 55.7574 24.7959V27.3512H56.3153H56.8731V24.4665C56.8731 21.0826 56.7528 20.6449 55.6899 20.1621C54.9957 19.8468 54.5036 19.8091 53.8115 20.0175ZM60.2202 20.2085C59.6604 20.4963 59.4045 20.7698 59.0546 21.4539C58.6399 22.2647 58.6101 22.4442 58.6587 23.8447C58.7194 25.5917 59.0041 26.3399 59.8557 26.9894C60.6254 27.5764 61.9052 27.6763 62.6939 27.2111C63.009 27.0251 63.3078 26.873 63.358 26.873C63.4082 26.873 63.4113 27.2114 63.3646 27.625C63.2992 28.2045 63.1661 28.4785 62.7836 28.8204C62.1104 29.4219 61.0037 29.4409 60.1557 28.8653C59.4403 28.3798 59.3962 28.3778 59.1224 28.8161C58.9254 29.1318 58.945 29.2003 59.3257 29.528C59.5576 29.7274 60.1104 29.9984 60.5543 30.1302C62.5847 30.7331 64.3623 29.6313 64.6012 27.6221C64.6552 27.1663 64.678 25.2871 64.6514 23.4462L64.6033 20.0991L64.0853 20.0493C63.6521 20.0075 63.5673 20.0531 63.5673 20.3282C63.5673 20.7321 63.5537 20.7322 62.8872 20.339C62.0119 19.8225 61.0611 19.7759 60.2202 20.2085ZM32.4908 22.839C32.4938 25.2564 32.5381 25.774 32.7893 26.3273C33.3039 27.4605 34.9133 27.8645 36.2328 27.1918C36.9825 26.8096 36.95 26.8128 36.95 27.1216C36.95 27.3116 37.0912 27.3586 37.5477 27.3209L38.1454 27.2715V23.6853V20.0991L37.5477 20.0497L36.95 20.0002V22.7712C36.95 25.4392 36.9366 25.5549 36.5914 25.8783C36.0809 26.3564 35.3637 26.591 34.759 26.4777C33.8599 26.3089 33.7631 25.973 33.7206 22.8737L33.6826 20.0991L33.085 20.0497L32.4873 20.0002L32.4908 22.839ZM48.0539 20.1258C47.9954 20.1841 47.9476 21.8337 47.9476 23.7916V27.3512H48.5851H49.2227V23.6853V20.0195H48.6914C48.3991 20.0195 48.1122 20.0673 48.0539 20.1258ZM13.9805 21.236C14.9188 21.8932 15.26 24.0701 14.6292 25.3734C14.0979 26.4707 12.9601 26.843 11.9743 26.2418C11.2429 25.796 10.9188 25.0696 10.9035 23.8418C10.8882 22.6126 11.2982 21.547 11.9155 21.2113C12.4743 20.9074 13.5294 20.92 13.9805 21.236ZM62.7866 21.3404L63.3282 21.705L63.3733 23.5932C63.4235 25.6939 63.3405 25.9125 62.3308 26.3399C60.9773 26.9125 59.7438 25.6848 59.7438 23.765C59.7438 21.4968 61.2438 20.3016 62.7866 21.3404ZM31.5993 34.5064C29.9178 35.27 29.0865 37.5103 29.4495 40.2994C29.8338 43.2514 31.6567 44.6737 34.4773 44.222C35.4419 44.0676 35.93 43.8409 36.5914 43.2407C36.9231 42.9398 36.95 42.7794 36.95 41.1102V39.305H35.1968H33.4436V39.7758C33.4436 40.2463 33.4447 40.2468 34.5194 40.2938L35.5953 40.341L35.642 41.4889C35.6879 42.6169 35.6805 42.6411 35.2204 42.8791C34.0508 43.4838 32.6277 43.3837 31.777 42.6368C30.9898 41.9457 30.6821 40.9998 30.6759 39.2526C30.6695 37.4233 30.9234 36.5161 31.6277 35.8519C32.8784 34.6723 35.0854 35.153 35.4945 36.6941C35.5972 37.081 35.7089 37.1611 36.2035 37.2027C36.7087 37.2453 36.7906 37.2058 36.7906 36.9187C36.7906 36.0214 35.9008 34.8481 34.9047 34.4318C34.1272 34.107 32.3926 34.146 31.5993 34.5064ZM61.6064 36.7627C61.2729 36.8199 60.797 37.017 60.5485 37.2008C60.0643 37.5588 59.9014 37.5175 59.9014 37.037C59.9014 36.792 59.8033 36.7442 59.3834 36.7847L58.8654 36.8345L58.8234 41.8761L58.7813 46.9175L59.1421 46.9824C60.0253 47.1416 60.0608 47.0718 60.0608 45.1791C60.0608 43.5826 60.0833 43.4487 60.3123 43.6777C60.7586 44.124 61.1872 44.2722 62.0546 44.28C63.8813 44.2965 64.8902 42.9458 64.8902 40.4843C64.8902 37.8784 63.603 36.4197 61.6064 36.7627ZM38.8627 40.5004V44.2652L39.4603 44.2157L40.058 44.1662L40.1016 41.4412C40.1438 38.7931 40.1559 38.706 40.53 38.3546C40.7681 38.1308 41.1919 37.9617 41.642 37.911C42.3452 37.8318 42.3691 37.8114 42.3691 37.292C42.3691 36.7824 42.3399 36.7549 41.8007 36.7549C41.16 36.7549 40.6093 36.9963 40.3851 37.3758C40.2576 37.5916 40.2193 37.5693 40.1396 37.233C40.0631 36.9095 39.9342 36.8253 39.4541 36.7851L38.8627 36.7356V40.5004ZM44.9959 36.977C44.3617 37.2534 43.5702 38.1707 43.3087 38.9327C43.0451 39.7009 43.0483 41.2662 43.3151 42.0681C43.5586 42.8 44.3077 43.6906 44.9658 44.0309C45.7428 44.4327 47.1773 44.354 48.014 43.8636C50.3133 42.5163 50.0905 38.0084 47.6738 36.9743C47.031 36.6992 45.6301 36.7007 44.9959 36.977ZM51.2953 39.7433C51.2958 42.4243 51.3278 42.7842 51.6064 43.2412C52.0718 44.0043 52.6169 44.2915 53.6006 44.2915C54.1913 44.2915 54.6389 44.1851 55.0373 43.95C55.7456 43.5321 55.7574 43.5317 55.7574 43.9272C55.7574 44.1852 55.8637 44.2459 56.3153 44.2459H56.8731V40.5004V36.7549H56.3153H55.7574V39.4618V42.1688L55.3191 42.6551C54.5029 43.5606 52.9255 43.4447 52.5801 42.4538C52.4867 42.1861 52.4104 40.7943 52.4104 39.361V36.7549H51.8525H51.2947L51.2953 39.7433ZM47.5413 38.2038C48.2243 38.8034 48.4922 39.6767 48.3792 40.9347C48.2437 42.443 47.5075 43.2896 46.3309 43.2896C45.267 43.2896 44.4947 42.4347 44.3342 41.079C44.0291 38.5027 45.9353 36.7937 47.5413 38.2038ZM62.7119 38.0669C63.3548 38.5075 63.5783 38.9764 63.6816 40.1019C63.7853 41.2305 63.5005 42.2653 62.9291 42.8367C62.3086 43.4571 61.2616 43.4748 60.5513 42.877L60.0608 42.4643V40.6351C60.0608 39.629 60.1381 38.6613 60.2328 38.4847C60.4292 38.1178 61.2302 37.7266 61.8042 37.7174C62.0179 37.714 62.4264 37.8712 62.7119 38.0669Z" fill="white"/>
</svg>
