<svg width="40" height="41" viewBox="0 0 40 41" fill="none" xmlns="http://www.w3.org/2000/svg">
<path d="M11.0333 18.9443C13.4333 23.6609 17.3 27.5276 22.0167 29.9276L25.6833 26.2609C26.15 25.7943 26.8 25.6609 27.3833 25.8443C29.25 26.4609 31.25 26.7943 33.3333 26.7943C33.7754 26.7943 34.1993 26.9699 34.5118 27.2824C34.8244 27.595 35 28.0189 35 28.4609V34.2943C35 34.7363 34.8244 35.1602 34.5118 35.4728C34.1993 35.7853 33.7754 35.9609 33.3333 35.9609C25.8189 35.9609 18.6122 32.9758 13.2986 27.6623C7.98511 22.3488 5 15.1421 5 7.6276C5 7.18558 5.17559 6.76165 5.48816 6.44909C5.80072 6.13653 6.22464 5.96094 6.66667 5.96094H12.5C12.942 5.96094 13.366 6.13653 13.6785 6.44909C13.9911 6.76165 14.1667 7.18558 14.1667 7.6276C14.1667 9.71094 14.5 11.7109 15.1167 13.5776C15.3 14.1609 15.1667 14.8109 14.7 15.2776L11.0333 18.9443Z" fill="#00B4BF"/>
</svg>
