<svg width="4078" height="1013" viewBox="0 0 4078 1013" fill="none" xmlns="http://www.w3.org/2000/svg">
<path fill-rule="evenodd" clip-rule="evenodd" d="M457.923 0.276746C416.532 3.59275 398.03 6.49875 365.423 14.8087C345.733 19.8267 334.703 23.7517 298.423 38.6487C272.098 49.4577 233.554 71.9177 204.923 93.1307C176.523 114.174 141.833 146.87 120.327 172.864C77.5401 224.583 44.4531 285.081 23.6391 349.657C5.94406 404.555 0.0250613 447.994 6.12617e-05 523.157C-0.0249387 594.599 7.60106 654.397 23.9731 711.157C31.3521 736.736 40.4321 761.188 49.9681 781.157C70.9851 825.166 95.5501 858.317 137.051 898.674C205.184 964.93 278.764 1001.01 364.772 1010.35C385.139 1012.56 423.42 1012.56 445.923 1010.36C478.613 1007.16 518.302 999.856 545.171 992.103C628.341 968.104 713.186 910.207 788.447 826.095C818.035 793.028 842.521 754.969 870.44 698.657C914.625 609.535 936.766 516.156 936.829 418.657C936.854 380.78 933.862 351.93 926.488 318.921C914.339 264.542 889.703 209.982 859.845 171.333C844.598 151.595 816.464 123.689 791.923 103.96C729.558 53.8217 667.078 23.9737 597.473 11.0657C576.861 7.24375 552.551 3.88775 532.808 2.13875C515.645 0.618746 468.335 -0.557254 457.923 0.276746ZM2374.42 101.784C2370.3 102.263 2356.35 103.786 2343.42 105.17C2330.5 106.554 2314.07 108.347 2306.92 109.154C2299.77 109.961 2290.89 110.916 2287.17 111.277L2280.42 111.933V357.805V603.677L2326.67 603.417L2372.91 603.157L2375.16 588.157C2376.4 579.907 2377.66 572.509 2377.96 571.717C2378.34 570.716 2380.3 572.26 2384.38 576.782C2399.81 593.88 2419.46 605.629 2442.92 611.779C2450.96 613.885 2454.01 614.131 2471.42 614.072C2489.95 614.009 2491.51 613.85 2502.71 610.891C2522.44 605.677 2538.95 596.761 2553.97 583.215C2582.27 557.685 2600.48 518.2 2607.55 467.066C2610.6 444.992 2610.61 408.79 2607.56 383.926C2597.25 299.798 2560.4 251.16 2500.19 242.22C2461.53 236.479 2425.12 247.31 2398.21 272.556C2394.75 275.799 2390.57 280.288 2388.92 282.531C2387.27 284.774 2385.59 286.62 2385.17 286.633C2384.76 286.646 2384.42 244.807 2384.42 193.657C2384.42 119.855 2384.17 100.684 2383.17 100.786C2382.49 100.857 2378.55 101.306 2374.42 101.784ZM3543.42 101.784C3539.3 102.263 3525.35 103.786 3512.42 105.17C3499.5 106.554 3483.07 108.347 3475.92 109.154C3468.77 109.961 3459.89 110.916 3456.17 111.277L3449.42 111.933V357.795V603.657H3501.42H3553.42V352.157C3553.42 151.555 3553.17 100.683 3552.17 100.786C3551.49 100.857 3547.55 101.306 3543.42 101.784ZM1152.42 374.101V603.657H1206.42H1260.41L1260.67 515.907L1260.92 428.157L1282.14 427.887C1303.25 427.619 1303.36 427.628 1304.74 429.887C1305.5 431.136 1312.12 443.407 1319.45 457.157C1326.77 470.907 1334.1 484.632 1335.73 487.657C1337.35 490.682 1342.29 499.907 1346.69 508.157C1351.09 516.407 1355.92 525.407 1357.42 528.157C1363.58 539.463 1381.58 573.107 1392.59 593.907L1397.75 603.657H1458.59C1492.05 603.657 1519.42 603.359 1519.42 602.995C1519.42 602.63 1518.13 600.268 1516.55 597.745C1514.97 595.221 1505.66 579.657 1495.86 563.157C1486.06 546.657 1470.77 521.007 1461.89 506.157C1453.01 491.307 1437.73 465.657 1427.94 449.157C1418.15 432.657 1408.62 416.699 1406.78 413.695L1403.43 408.234L1412.75 403.545C1456.54 381.502 1478.93 355.871 1488.21 317.157C1490.63 307.036 1490.85 304.399 1490.88 284.157C1490.92 264.949 1490.63 260.761 1488.62 251.157C1483.17 225.085 1473.74 206.701 1457.54 190.571C1434.2 167.318 1403.05 154.351 1353.92 147.44C1339.73 145.442 1333.94 145.308 1245.67 144.937L1152.42 144.544V374.101ZM426.423 182.646C451.665 184.363 479.978 188.857 501.923 194.63C513.581 197.697 535.677 204.784 540.839 207.111C542.535 207.876 547.748 210.143 552.423 212.148C597.401 231.443 637.617 263.784 661.863 300.157C678.688 325.398 688.036 348.67 693.596 379.157C696.546 395.334 696.767 425.481 694.066 443.157C685.899 496.586 665.667 537.63 629.983 573.162C602.155 600.873 569.603 620.647 528.923 634.555C510.937 640.704 482.667 647.31 466.041 649.25L461.158 649.819L466.041 654.85C484.957 674.339 515.468 698.431 539.923 713.186C547.944 718.026 572.449 730.68 579.932 733.846C602.081 743.217 629.81 751.441 654.923 756.088C666.145 758.164 688.97 760.274 709.923 761.171C735.441 762.263 746.065 765.139 755.553 773.524C762.194 779.393 764.423 784.733 764.423 794.774C764.423 802.053 764.094 803.489 761.307 808.36C755.485 818.535 747.017 822.733 724.423 826.643C679.437 834.429 630.147 829.794 575.923 812.68C552.259 805.211 521.209 791.851 501.923 780.838C498.623 778.954 494.531 776.615 492.83 775.64C465.339 759.886 435.834 737.371 409.923 712.374L394.923 697.903L394.67 702.03C393.631 718.962 391.136 727.547 384.274 737.797C377.579 747.797 365.831 755.741 353.972 758.288C345.177 760.176 317.195 760.075 310.649 758.131C299.663 754.869 291.337 745.278 289.5 733.77C288.311 726.32 286.849 646.106 285.432 510.657C284.906 460.332 284.219 415.332 283.906 410.657C282.44 388.777 290.773 372.06 307.638 363.049L314.923 359.157H347.923H380.923L385.923 362.047C395.268 367.448 400.513 374.56 402.962 385.147C403.863 389.046 404.332 393.911 404.022 396.147C403.717 398.353 402.971 421.082 402.364 446.657C401.758 472.232 400.476 513.407 399.516 538.157C398.555 562.907 397.923 583.351 398.111 583.588C398.299 583.826 405.308 583.443 413.688 582.738C461.87 578.684 508.353 560.861 540.423 534.145C581.538 499.893 602.11 453.779 598.414 404.157C594.906 357.08 565.465 315.899 516.923 290.17C496.002 279.082 468.366 270.507 437.423 265.505C424.387 263.397 419.693 263.161 390.923 263.159C365.516 263.157 356.245 263.529 345.923 264.964C302.848 270.952 270.392 280.298 236.423 296.497C226.68 301.144 206.175 312.833 196.995 318.975C179.953 330.376 167.201 340.546 150.761 355.846C136.095 369.494 127.134 375.23 115.963 378.117C108.225 380.117 105.516 380.059 98.9611 377.755C80.6871 371.332 74.4751 352.16 84.6721 333.657C93.3251 317.957 117.537 290.179 136.361 274.358C141.07 270.4 145.148 266.92 145.423 266.625C147.209 264.708 170.355 248.283 175.652 245.172C176.603 244.614 182.003 241.408 187.652 238.048C219.786 218.936 260.532 202.891 301.423 193.249C341.915 183.7 386.422 179.925 426.423 182.646ZM2205.42 199.855C2194.22 206.433 2169.29 218.548 2157.58 223.109C2124.26 236.087 2097.43 240.656 2054.53 240.658C2016.7 240.661 1989.92 245.739 1964.9 257.66C1939.04 269.982 1918.2 289.847 1906.58 313.273C1889.59 347.482 1890.7 396.413 1909.15 426.931C1917.75 441.155 1932.86 455.402 1949.94 465.391C1953.49 467.462 1956.39 469.418 1956.4 469.737C1956.41 470.057 1954.38 471.787 1951.88 473.582C1935.44 485.387 1923.03 502.584 1917.9 520.657C1915.14 530.409 1915.3 545.084 1918.28 554.657C1927.3 583.654 1956.46 601.848 1999.92 605.6C2006.52 606.17 2027.73 606.641 2047.04 606.647C2086.1 606.658 2095.33 607.582 2105.92 612.538C2120.2 619.219 2127.15 632.511 2124.4 647.889C2120.93 667.294 2105.54 677.05 2073.42 680.196C2055.01 681.999 2040.72 681.993 2022.42 680.174C1994.39 677.387 1980.9 670.819 1975.14 657.157C1973.07 652.252 1971.48 645.25 1971.45 640.907L1971.42 637.657H1924.79H1878.15L1878.67 649.407C1879.34 664.577 1882.92 678.845 1889.41 692.234C1908.31 731.236 1959.78 750.604 2044.62 750.647C2098.93 750.674 2143.03 742.044 2173.02 725.523C2202.57 709.245 2219.33 688.906 2226.98 660.041C2230.62 646.317 2230.86 625.37 2227.52 612.657C2217.61 574.855 2186.79 548.048 2140.92 537.329C2124.17 533.414 2113.59 532.659 2075.21 532.639C2027.86 532.615 2017.71 531.485 2010.86 525.466C2005.95 521.154 2004.42 517.698 2004.45 510.957C2004.48 502.936 2007.9 495.877 2013.42 492.459C2015.69 491.055 2017.03 491.08 2027.92 492.734C2043.05 495.031 2066.95 495.193 2083.58 493.112C2130.38 487.255 2165.33 467.943 2186.65 436.157C2191.15 429.441 2197.1 415.691 2200.06 405.157C2202.68 395.825 2202.87 393.921 2202.85 376.657C2202.83 356.582 2201.57 349.399 2195.76 336.223C2187.77 318.093 2172.37 303.685 2147.42 290.991L2137.92 286.157L2156.92 285.492C2178.8 284.726 2199.22 282.584 2212.6 279.651C2223.46 277.271 2238.42 272.709 2238.42 271.78C2238.42 271.427 2236.69 265.743 2234.57 259.148C2228.23 239.45 2220.76 215.824 2217.41 204.907C2215.68 199.27 2214.19 194.704 2214.1 194.762C2214 194.82 2210.1 197.112 2205.42 199.855ZM1327.42 222.57C1344.34 225.674 1355.71 230.797 1363.89 239.016C1370.46 245.607 1374.72 253.143 1377.56 263.171C1380.77 274.53 1380.76 295.415 1377.53 307.657C1371.53 330.471 1359.81 342.59 1336.92 349.629C1328.06 352.354 1306.01 353.828 1279.92 353.44L1260.92 353.157L1260.66 287.657C1260.52 251.632 1260.65 221.525 1260.94 220.752C1261.78 218.555 1313.2 219.962 1327.42 222.57ZM1665.42 242.28C1632.48 247.227 1605.02 261.213 1581.25 285.144C1555.25 311.318 1539.27 346.108 1532.32 391.657C1529.16 412.339 1529.16 445.939 1532.32 466.657C1539.01 510.574 1554.09 542.401 1580.88 569.192C1611.44 599.733 1651.04 613.917 1705.92 613.977C1723.15 613.995 1729.26 613.6 1739.92 611.773C1764.51 607.562 1779.23 602.829 1800.92 592.167C1815.09 585.202 1833 574.15 1840.15 567.953L1843.38 565.157L1833.65 552.117C1828.3 544.946 1818.8 532.121 1812.53 523.617C1806.27 515.114 1801 507.99 1800.83 507.786C1800.66 507.582 1797.23 509.589 1793.22 512.246C1783.93 518.395 1765.97 527.74 1756.92 531.134C1742.84 536.416 1733.29 538.025 1715.92 538.041C1702.43 538.052 1698.61 537.701 1691.52 535.794C1667.3 529.283 1653.55 517.129 1644.42 494.159C1641.38 486.502 1636.42 465.816 1636.42 460.787V457.657H1745.33H1854.23L1855.07 446.907C1856.22 432.016 1855.94 404.509 1854.48 390.157C1846.9 315.81 1808.65 265.1 1746.48 247.012C1725.56 240.924 1688.76 238.776 1665.42 242.28ZM2795.56 242.74C2776.74 245.63 2763.36 249.802 2747.01 257.874C2732.07 265.252 2720.22 273.848 2707.35 286.648C2683.1 310.762 2668.88 338.602 2660.87 377.657C2657.98 391.718 2656.45 408.721 2656.43 426.762C2656.39 490.392 2673.48 537.614 2708.76 571.347C2730.9 592.51 2757.09 605.172 2791.42 611.307C2804.11 613.573 2808.68 613.899 2827.92 613.908C2846.05 613.916 2852.04 613.54 2861.92 611.774C2889.6 606.83 2912.68 597.329 2933.42 582.331C2942.94 575.451 2960.46 556.922 2967.68 546.089C2989.46 513.438 3000.43 473.668 3000.42 427.301C3000.42 369.527 2984.64 321.901 2954.88 289.873C2930.41 263.534 2900.38 248.384 2861.22 242.622C2843.28 239.983 2813.16 240.037 2795.56 242.74ZM3182.72 242.581C3159.78 246.329 3141.62 252.664 3124.08 263.034C3088.65 283.981 3064 317.154 3051.53 360.657C3038.77 405.21 3040.35 465.151 3055.46 509.168C3058.57 518.224 3068.61 538.217 3074.28 546.657C3090.35 570.541 3115.19 590.709 3141.56 601.265C3180.56 616.875 3233.67 618.599 3274.42 605.578C3323.74 589.819 3361.46 550.375 3377.25 498.038C3383.96 475.818 3386.43 456.523 3386.4 426.801C3386.37 402.737 3385.38 390.939 3381.93 373.533C3367.68 301.539 3321.73 255.267 3252.42 243.114C3237.57 240.51 3197.29 240.202 3182.72 242.581ZM3902.04 242.687C3850.13 251.154 3812.11 277.558 3798.05 314.905C3789.45 337.759 3791.32 370.832 3802.44 392.705C3813.61 414.667 3836.99 434.395 3866.43 446.701C3875.56 450.517 3889.75 455.294 3906.42 460.163C3922.06 464.73 3935.15 469.019 3942.93 472.127C3963.97 480.53 3971.13 489.79 3970.25 507.443C3969.74 517.414 3966.7 523.712 3959.86 528.898C3948.82 537.266 3935.42 540.239 3912.92 539.31C3885.66 538.184 3861.9 529.932 3836.42 512.743L3825.92 505.658L3821.92 510.007C3812.74 519.993 3777.82 559.158 3776.65 560.795C3775.52 562.367 3776.15 563.209 3782.15 568.161C3826.63 604.865 3894.23 621.453 3958.92 611.538C3995.86 605.876 4026.66 592.006 4047.36 571.705C4061.54 557.803 4070.27 543.146 4075.11 525.105C4077.5 516.203 4077.78 513.37 4077.81 498.157C4077.84 480.112 4076.3 470.593 4071.25 457.657C4061.7 433.244 4040.2 414.315 4004.74 399.116C3994.8 394.857 3985.83 391.804 3948.92 380.135C3930.28 374.238 3913.93 367.155 3906.81 361.885C3898.36 355.632 3894.87 341.854 3899.29 332.157C3902.98 324.051 3912.75 318.04 3926.42 315.459C3934.21 313.99 3957.01 315.169 3968.42 317.631C3986.1 321.443 4005.6 329.153 4020.59 338.258C4026.03 341.562 4026.84 341.798 4027.82 340.367C4028.43 339.48 4037 326.286 4046.86 311.047L4064.8 283.339L4061.36 280.465C4045.69 267.37 4016.57 253.312 3992.42 247.182C3973.72 242.435 3965.16 241.461 3938.92 241.097C3917.79 240.804 3912.09 241.05 3902.04 242.687ZM3639.41 289.407C3625.47 310.169 3607.25 337.282 3598.92 349.657C3590.59 362.032 3577.85 380.981 3570.61 391.767L3557.45 411.376L3563.57 422.767C3566.93 429.031 3571.42 437.235 3573.55 440.997C3575.68 444.758 3577.42 448.017 3577.42 448.237C3577.42 448.458 3581.61 456.18 3586.73 465.398C3591.85 474.615 3600.05 489.582 3604.94 498.657C3609.83 507.732 3617.68 522.172 3622.38 530.747C3627.08 539.321 3637.9 559.22 3646.42 574.967L3661.92 603.597L3720.73 603.627C3753.08 603.644 3779.34 603.32 3779.1 602.907C3778.86 602.494 3772.24 591.132 3764.38 577.657C3756.53 564.182 3747.02 547.869 3743.26 541.407C3739.5 534.945 3733.34 524.369 3729.58 517.907C3725.81 511.445 3718.67 499.182 3713.71 490.657C3708.74 482.132 3696.26 460.761 3685.95 443.165C3675.65 425.57 3666.6 409.975 3665.85 408.509C3664.52 405.951 3664.78 405.393 3672.36 394.501C3683 379.226 3686.64 373.967 3699.93 354.657C3706.18 345.582 3714.41 333.657 3718.22 328.157C3755.44 274.402 3770.14 252.706 3769.66 252.226C3769.35 251.913 3745.62 251.657 3716.93 251.657H3664.76L3639.41 289.407ZM1710.4 310.736C1723.5 313.757 1735.92 323.395 1742.29 335.491C1749.04 348.299 1753.42 368.722 1753.42 387.343V395.657H1694.78H1636.13L1636.78 387.229C1638.1 370.072 1642.82 350.983 1648.67 339.157C1656.33 323.684 1668.81 313.755 1684.92 310.316C1688.96 309.454 1706.05 309.736 1710.4 310.736ZM2068.96 311.187C2086.16 315.604 2096.04 325.213 2101.66 343.014C2103.62 349.223 2103.92 352.316 2103.92 366.657C2103.92 380.927 2103.61 384.234 2101.62 391.127C2095.36 412.75 2082.26 424.073 2060.32 426.821C2034.99 429.995 2014.78 420.357 2004.98 400.43C2000.28 390.889 1998.46 381.728 1998.46 367.657C1998.45 353.997 2000.13 345.942 2005.08 335.913C2010.94 324.035 2023.73 313.668 2036.12 310.753C2042.56 309.237 2062.39 309.5 2068.96 311.187ZM2847.6 319.616C2877.88 329.03 2891.76 362.794 2891.79 427.157C2891.81 475.81 2884.26 504.857 2867.12 522.008C2855.96 533.179 2844.75 537.657 2827.94 537.657C2812.01 537.657 2798.15 532.277 2788.82 522.472C2777.68 510.782 2771.74 496.456 2767.33 470.648C2765.27 458.623 2765.02 453.898 2765.01 427.157C2765 400.12 2765.23 395.873 2767.33 384.157C2771.94 358.349 2778.29 343.692 2789.87 332.105C2797.55 324.424 2804.72 320.404 2814.92 318.057C2823.12 316.172 2838.95 316.927 2847.6 319.616ZM3227.73 318.088C3248.32 322.028 3263.15 336.972 3270.85 361.536C3276.57 379.798 3277.88 392.038 3277.9 427.157C3277.91 456.139 3277.69 460.336 3275.64 471.657C3267.44 516.702 3248.11 537.657 3214.74 537.657C3184.81 537.657 3165.69 520.418 3157.08 485.657C3152.62 467.652 3151.14 449.642 3151.73 420.657C3152.49 384.173 3155.61 367.154 3165.1 347.849C3177.02 323.575 3199.81 312.747 3227.73 318.088ZM2458.92 319.016C2481.42 325.024 2494.73 346.268 2499.43 383.657C2501.45 399.751 2501.8 443.586 2500.04 460.157C2494.45 512.649 2474.57 538.657 2440.05 538.657C2428.23 538.657 2417.88 535.641 2408.45 529.453C2400.9 524.502 2392.21 516.098 2387.64 509.325L2384.42 504.557V431.562V358.567L2389.61 350.862C2400.11 335.26 2416.53 322.297 2429.9 319.047C2436.7 317.395 2452.79 317.378 2458.92 319.016ZM3637.81 628.284C3633.2 631.396 3632.74 632.021 3631.4 636.861C3629.85 642.438 3631.84 649.109 3635.98 652.271C3640.46 655.686 3648.58 656.478 3653.4 653.968C3658.39 651.372 3661.42 646.372 3661.42 640.741C3661.42 628.711 3647.81 621.53 3637.81 628.284ZM4054.84 627.078C4045.5 631.143 4043.24 643.749 4050.51 651.242C4056.28 657.198 4066.91 656.932 4072.9 650.68C4075.25 648.227 4075.87 646.577 4076.2 641.908C4076.53 637.11 4076.21 635.577 4074.24 632.657C4070.01 626.37 4061.85 624.025 4054.84 627.078ZM3415.92 634.24C3414.82 634.41 3410.89 634.835 3407.17 635.183L3400.42 635.816V724.737V813.657H3410.92H3421.42V768.723V723.789L3426.48 717.489C3429.26 714.023 3433.07 709.927 3434.94 708.385C3446.91 698.518 3464.2 698.825 3471.2 709.029C3474.72 714.167 3475.36 723.576 3475.39 770.407L3475.42 813.657H3485.92H3496.42V764.367C3496.42 711.234 3496.15 707.936 3491.08 699.902C3487.42 694.107 3481.27 689.118 3474.8 686.697C3469.82 684.83 3467.33 684.546 3458.4 684.826C3448.81 685.127 3447.26 685.458 3441.02 688.53C3436.81 690.606 3431.92 694.164 3428.3 697.78C3425.07 701.013 3422.2 703.657 3421.92 703.657C3421.65 703.657 3421.42 687.907 3421.42 668.657C3421.42 630.301 3421.9 633.312 3415.92 634.24ZM3973.67 656.905L3964.42 657.865V672.261V686.657H3953.42H3942.42V695.157V703.657H3953.38H3964.33L3964.62 747.907C3964.92 791.381 3964.96 792.257 3967.22 797.831C3969.98 804.673 3975.95 811.084 3982.27 814.005C3986.23 815.835 3988.72 816.154 3998.92 816.134C4009.05 816.115 4011.81 815.756 4016.63 813.828C4019.77 812.572 4023.3 810.766 4024.48 809.815L4026.61 808.086L4022.87 801.621C4020.81 798.066 4019 795.007 4018.86 794.823C4018.71 794.639 4015.87 795.481 4012.55 796.692C4004.52 799.617 3994.69 799.2 3991.05 795.779C3986.82 791.807 3986.42 787.327 3986.42 744.214V703.657H4000.31H4014.2L4014.84 698.907C4015.19 696.295 4015.73 692.47 4016.04 690.407L4016.6 686.657H4001.51H3986.42V671.157C3986.42 657.007 3986.27 655.67 3984.67 655.801C3983.71 655.88 3978.76 656.377 3973.67 656.905ZM3064.42 685.628C3055.61 688.448 3046.94 694.319 3040.77 701.661C3038.3 704.593 3037.97 704.725 3037.3 703.031C3036.9 702 3036.53 698.907 3036.48 696.157C3036.32 686.516 3036.48 686.657 3025.81 686.657H3016.42V750.157V813.657H3027.42H3038.42V768.767V723.877L3042.79 717.94C3051.16 706.574 3060.28 701.235 3071.29 701.261C3078.34 701.279 3081.24 702.332 3085.7 706.489C3091.14 711.566 3091.42 714.531 3091.42 766.339V813.657H3102.47H3113.51L3113.21 762.407L3112.92 711.157L3110.47 705.247C3107.11 697.122 3099.65 689.635 3092.13 686.821C3087.57 685.114 3084.3 684.675 3076.64 684.743C3071.29 684.79 3065.8 685.189 3064.42 685.628ZM3182.42 685.366C3177.34 686.255 3163.79 689.806 3159.78 691.304L3155.63 692.85L3158.28 700.749C3160.3 706.785 3161.28 708.509 3162.42 708.056C3163.25 707.731 3168.42 706.31 3173.92 704.9C3186.57 701.657 3201.53 701.232 3208.49 703.919C3217.85 707.532 3222.42 716.215 3222.42 730.367V736.657L3210.67 736.66C3187.62 736.665 3171.87 740.015 3162.12 746.983C3156.28 751.162 3152.99 755.215 3149.66 762.319C3147.22 767.523 3146.93 769.297 3146.93 778.657C3146.94 788.11 3147.23 789.783 3149.83 795.439C3153.41 803.204 3162.1 811.641 3169.1 814.143C3171.81 815.11 3178.31 816.091 3183.93 816.381C3200.35 817.228 3210.52 813.602 3219.92 803.559C3222.51 800.791 3224.75 798.668 3224.9 798.842C3225.05 799.015 3226.11 801 3227.24 803.252C3228.38 805.504 3230.91 808.754 3232.87 810.475C3236.38 813.558 3246.38 817.271 3248.74 816.366C3249.8 815.961 3254.91 802.662 3254.2 802.189C3249.36 799.004 3247.13 796.99 3245.99 794.791C3244.89 792.652 3244.51 784.107 3244.2 754.12C3243.84 719.192 3243.64 715.669 3241.77 710.058C3237.65 697.734 3230.21 690.525 3217.61 686.633C3212.48 685.048 3208.61 684.684 3198.07 684.793C3190.84 684.868 3183.8 685.126 3182.42 685.366ZM3303.03 687.131C3284.76 693.579 3274.79 707.244 3276.87 722.985C3279.15 740.229 3289.47 748.538 3319.42 757.249C3336.96 762.35 3343.26 766.623 3345.5 774.947C3349.9 791.284 3333.47 802.214 3309.81 798.7C3302.65 797.637 3299.1 796.436 3291.55 792.51L3282.17 787.638L3280.19 789.898C3273.7 797.272 3271.16 800.884 3272.04 801.484C3272.58 801.854 3275.03 803.571 3277.49 805.299C3295.84 818.177 3328.7 820.553 3348.8 810.454C3355.47 807.103 3363.18 799.857 3365.65 794.626C3368.32 788.958 3369.45 779.511 3368.31 772.407C3365.79 756.698 3355.95 747.77 3333.92 741.186C3310.02 734.045 3303.76 731.003 3301 725.172C3297.08 716.92 3300.26 709.012 3309.35 704.407C3313.97 702.071 3316.02 701.657 3323 701.657C3332.38 701.657 3341.97 704.173 3350.05 708.753C3352.86 710.35 3355.44 711.657 3355.77 711.657C3356.11 711.657 3358.41 708.634 3360.89 704.939L3365.4 698.22L3359.16 694.254C3355.73 692.072 3348.99 689.02 3344.17 687.472C3336.43 684.982 3333.95 684.659 3322.67 684.678C3311.76 684.696 3308.93 685.049 3303.03 687.131ZM3583.91 687.013C3577.1 690.182 3570.57 696.975 3566.4 705.237L3562.92 712.105L3562.12 702.631C3561.69 697.42 3561.1 691.678 3560.82 689.87L3560.32 686.583L3551.12 686.87L3541.92 687.157L3541.67 750.407L3541.41 813.657H3552.42H3563.42V777.971C3563.42 744.678 3563.57 741.777 3565.54 734.721C3569.48 720.627 3575.58 711.696 3584.05 707.594C3587.9 705.732 3589.79 705.478 3597.02 705.857C3606.7 706.365 3605.52 707.638 3607.82 694.157C3608.57 689.757 3608.98 685.82 3608.74 685.407C3608.5 684.994 3603.94 684.661 3598.61 684.667C3590.57 684.675 3588.07 685.074 3583.91 687.013ZM3850.34 687.267C3833.04 693.076 3820.8 707.411 3815.47 728.095C3812.59 739.262 3812.57 761.956 3815.42 773.247C3821.04 795.491 3834.64 810.415 3853.49 815.045C3861.89 817.109 3876.83 817.123 3884.78 815.073C3913.39 807.697 3929.33 778.173 3925.4 739.855C3922.54 712.011 3909.84 693.705 3888.73 687.001C3877.92 683.568 3861.01 683.686 3850.34 687.267ZM3635.42 750.123V813.657H3646.43H3657.44L3657.18 750.407L3656.92 687.157L3646.17 686.873L3635.42 686.589V750.123ZM3687.97 699.876C3695.65 723.28 3722.4 802.955 3724.57 808.907C3726.57 814.389 3726.83 814.657 3730.11 814.657C3733.23 814.657 3733.49 814.874 3732.86 816.907C3730.92 823.157 3725.15 832.655 3720.93 836.544C3715.83 841.242 3705.88 846.24 3699.64 847.239C3693.49 848.222 3693.48 848.242 3694.69 857.423L3695.78 865.681L3699.35 865.109C3708.7 863.611 3713.55 862.154 3721.04 858.59C3727.63 855.453 3730.48 853.314 3736.18 847.208C3747.68 834.899 3749.8 829.808 3774.76 754.656C3787.01 717.775 3796.82 687.388 3796.56 687.128C3796.3 686.869 3791.23 686.657 3785.3 686.657H3774.5L3773.37 690.907C3772.75 693.244 3769.35 704.832 3765.81 716.657C3762.27 728.482 3757.09 745.807 3754.29 755.157C3745.92 783.149 3741.3 797.866 3740.99 797.501C3740.72 797.192 3725.97 749.541 3718.28 724.157C3716.61 718.657 3713.36 708.082 3711.05 700.657L3706.85 687.157L3695.23 686.876L3683.61 686.595L3687.97 699.876ZM4050.42 750.157V813.657H4061.42H4072.42V750.157V686.657H4061.42H4050.42V750.157ZM3880.3 703.308C3894.96 708.042 3902.42 723.843 3902.42 750.157C3902.42 775.135 3896.28 790.14 3883.5 796.421C3878.72 798.765 3876.71 799.152 3869.42 799.121C3855.75 799.064 3847.11 793.614 3841.72 781.657C3834.83 766.35 3834.83 735.013 3841.72 719.641C3848.29 704.972 3864.38 698.164 3880.3 703.308ZM3222.2 765.521C3222.47 779.308 3222.38 780.057 3219.97 784.172C3208.78 803.266 3179.73 806.65 3172.1 789.749C3169.52 784.039 3169.31 771.963 3171.69 766.657C3176.74 755.444 3189.3 750.681 3212.92 751.026L3221.92 751.157L3222.2 765.521Z" fill="#FFF1F1"/>
</svg>
