<svg width="50" height="45" viewBox="0 0 50 45" fill="none" xmlns="http://www.w3.org/2000/svg">
<path fill-rule="evenodd" clip-rule="evenodd" d="M24.7021 0.652842C24.3893 0.87659 24.1334 1.08736 24.1334 1.12115C24.1334 1.155 24.1958 1.30036 24.2721 1.44422C24.4861 1.84774 24.4715 2.58017 24.2402 3.05127C24.0503 3.43789 23.7235 3.76717 23.3131 3.98514C23.0958 4.10056 22.9485 4.12683 22.5183 4.12696C21.9024 4.12715 21.5938 4.0121 21.1541 3.6184L20.8769 3.37024L20.3155 3.7727C20.0067 3.99409 19.7336 4.19355 19.7086 4.21591C19.6836 4.23827 19.7255 4.38145 19.8018 4.53408C20.0024 4.93567 20.001 5.80681 19.7991 6.21672C19.4662 6.89219 18.8055 7.28912 18.0148 7.28869C17.4903 7.28844 17.1232 7.14227 16.7248 6.7751L16.4507 6.5224L15.8507 6.94039C15.4488 7.22048 15.2601 7.38919 15.2789 7.45162C15.2943 7.50287 15.3671 7.71252 15.4407 7.9175C15.8884 9.16495 14.9479 10.4653 13.6044 10.4562C13.0755 10.4526 12.707 10.3049 12.3069 9.93602L12.025 9.67618L11.8208 9.81681C11.7085 9.89409 11.4301 10.0935 11.202 10.26L10.7872 10.5625L10.9508 10.9172C11.0785 11.1943 11.1141 11.367 11.1135 11.7067C11.1124 12.2336 10.9657 12.5983 10.5914 13.0043L10.3316 13.2861L10.4752 13.4903C10.6199 13.696 13.84 18.2123 24.6601 33.3857C27.9004 37.9297 30.8593 42.0807 31.2353 42.6102C31.6114 43.1398 31.9275 43.5839 31.9378 43.597C31.948 43.6103 32.1026 43.5581 32.2812 43.4814C33.1463 43.1091 34.2171 43.381 34.6623 44.0859C34.7307 44.1941 34.8112 44.2837 34.8413 44.285C34.8714 44.2863 35.1716 44.0894 35.5082 43.8473L36.1204 43.4072L35.9672 43.2064C35.6282 42.7619 35.5249 41.9949 35.7249 41.4078C35.9344 40.793 36.6308 40.2432 37.3198 40.1488C37.9398 40.0638 38.6764 40.3822 39.0747 40.9074L39.2672 41.1612L39.7611 40.8142C40.0327 40.6233 40.3196 40.421 40.3986 40.3647L40.5424 40.2621L40.3845 40.023C40.1648 39.6901 40.0355 39.2921 40.0355 38.9488C40.0355 37.1773 42.2207 36.3205 43.4025 37.6286C43.5233 37.7623 43.6344 37.9087 43.6495 37.9538C43.6678 38.0089 43.8854 37.8871 44.3098 37.584C44.658 37.3355 44.9428 37.1203 44.9428 37.1057C44.9428 37.0912 44.8747 36.9714 44.7914 36.8394C44.2651 36.0057 44.3999 34.9845 45.122 34.336C45.4848 34.0102 45.907 33.8509 46.407 33.8513C46.9938 33.8518 47.3368 33.9998 47.783 34.445L48.1696 34.8307L48.7839 34.3966L49.3982 33.9626L49.192 33.6202C48.7388 32.8676 48.8425 31.9097 49.4465 31.2693C49.5686 31.1399 49.6564 31.0027 49.6417 30.9644C49.6111 30.8843 43.9813 22.9718 32.7359 7.20315C31.6029 5.61449 30.1094 3.51802 29.4169 2.54433C28.7245 1.57063 28.1392 0.753722 28.1164 0.728937C28.0935 0.704214 27.8965 0.755958 27.6786 0.843978C26.9575 1.13525 26.1749 0.992316 25.5982 0.464067C25.4673 0.344118 25.34 0.245972 25.3155 0.245972C25.2909 0.245972 25.0149 0.429032 24.7021 0.652842ZM9.5643 3.39521C9.34589 3.72996 8.89225 4.06503 8.52265 4.16454C8.26225 4.23467 7.47522 4.21585 7.29321 4.13516C7.21314 4.09969 7.13506 4.22684 6.89268 4.78758L6.59166 5.48411L6.7431 5.58269C7.08456 5.80488 7.36757 6.11578 7.53057 6.44774C7.67573 6.74329 7.70325 6.87865 7.70325 7.29633C7.70325 7.71531 7.67586 7.84905 7.52864 8.14883C7.13755 8.94536 6.19796 9.39187 5.36254 9.17824L5.00958 9.08799L4.72583 9.73221C4.56979 10.0865 4.44307 10.4102 4.44437 10.4515C4.44562 10.4927 4.57165 10.6057 4.72452 10.7025C5.25874 11.0411 5.60343 11.7618 5.54411 12.4161C5.48 13.1228 5.07953 13.7105 4.45208 14.0187C4.14602 14.169 4.03601 14.1898 3.60349 14.1788C3.33017 14.1719 3.03952 14.158 2.95759 14.1478C2.82341 14.1311 2.77906 14.1955 2.51009 14.798L2.21149 15.4668L2.44158 15.6143C3.05319 16.0064 3.35247 16.5491 3.35247 17.2662C3.35247 18.0185 2.97424 18.6412 2.30293 18.9942C2.02551 19.1402 1.92252 19.1588 1.42937 19.1526C1.12189 19.1487 0.817448 19.135 0.752845 19.1221C0.656563 19.1029 0.580904 19.2206 0.332619 19.7759C0.166082 20.1483 0.0372497 20.4579 0.0463189 20.4639C0.0553881 20.4699 0.165647 20.5366 0.291373 20.6122C0.593389 20.7937 0.883851 21.1313 1.04132 21.4838C1.16326 21.7567 1.2004 22.294 1.13773 22.8786C1.11685 23.0738 0.790986 22.919 5.96396 25.1711C7.89035 26.0098 10.4239 27.1133 12.6727 28.0931C21.1838 31.8016 22.9121 32.5468 22.9395 32.5193C22.9567 32.5021 22.943 32.4524 22.9089 32.4089C22.8748 32.3653 20.3361 28.8077 17.2673 24.5029C14.1985 20.1982 11.1307 15.8952 10.45 14.9407C9.76929 13.9862 9.19954 13.172 9.18395 13.1314C9.16836 13.0908 9.35521 12.9124 9.59908 12.735C9.91812 12.503 10.0757 12.3395 10.1605 12.1527C10.3684 11.6948 10.3074 11.4228 9.84352 10.7398C9.69599 10.5225 9.60964 10.3395 9.64424 10.3172C9.67779 10.2956 10.2553 9.88663 10.9276 9.40833C11.6 8.93002 12.1818 8.53868 12.2208 8.53868C12.2596 8.53868 12.42 8.72037 12.5771 8.94244C13.0333 9.58754 13.544 9.77134 14.1137 9.49554C14.473 9.32161 14.6915 8.95375 14.6915 8.5229C14.6915 8.24766 14.6519 8.14821 14.3809 7.74308C14.2101 7.48765 14.0703 7.25328 14.0703 7.22216C14.0703 7.1911 14.488 6.87355 14.9985 6.51663C15.5091 6.1597 15.92 5.84252 15.9117 5.8119C15.8985 5.76295 10.0854 3.19271 9.84631 3.13016C9.78892 3.11512 9.68058 3.21694 9.5643 3.39521ZM40.6059 16.7461C40.7266 16.9126 41.6004 18.139 42.5477 19.4714C43.4951 20.8038 44.315 21.929 44.3699 21.9716C44.4247 22.0144 44.5026 22.0493 44.5429 22.0493C44.6126 22.0493 45.1913 20.8376 45.1913 20.6916C45.1913 20.6535 45.0941 20.5816 44.9752 20.5319C44.64 20.3919 44.1658 19.9098 44.0062 19.5468C43.8542 19.2009 43.8109 18.6089 43.9072 18.1934L43.9586 17.9714L42.3145 17.2525C40.2122 16.3331 40.3323 16.3687 40.6059 16.7461Z" fill="#242424"/>
<path fill-rule="evenodd" clip-rule="evenodd" d="M25.0129 1.02546C24.7 1.24921 24.4441 1.45998 24.4441 1.49377C24.4441 1.52762 24.5065 1.67298 24.5828 1.81684C24.7968 2.22036 24.7823 2.95279 24.5509 3.42389C24.3611 3.81051 24.0342 4.13979 23.6238 4.35776C23.4065 4.47318 23.2592 4.49945 22.829 4.49958C22.2131 4.49976 21.9045 4.38472 21.4648 3.99102L21.1876 3.74286L20.6262 4.14532C20.3174 4.36671 20.0443 4.56617 20.0193 4.58853C19.9943 4.61089 20.0362 4.75407 20.1125 4.9067C20.3132 5.30829 20.3117 6.17943 20.1098 6.58934C19.777 7.26481 19.1163 7.66174 18.3255 7.66131C17.801 7.66106 17.4339 7.51489 17.0356 7.14772L16.7614 6.89502L16.1615 7.31301C15.7596 7.5931 15.5708 7.76181 15.5896 7.82424C15.605 7.87549 15.6778 8.08513 15.7514 8.29012C16.1992 9.53757 15.2586 10.8379 13.9152 10.8288C13.3862 10.8252 13.0177 10.6775 12.6176 10.3086L12.3357 10.0488L12.1315 10.1894C12.0193 10.2667 11.7408 10.4662 11.5127 10.6326L11.0979 10.9351L11.2615 11.2898C11.3893 11.5669 11.4249 11.7396 11.4242 12.0793C11.4231 12.6062 11.2765 12.9709 10.9021 13.3769L10.6423 13.6588L10.7859 13.8629C10.9307 14.0686 14.1507 18.5849 24.9709 33.7584C28.2112 38.3023 31.17 42.4533 31.5461 42.9828C31.9221 43.5124 32.2382 43.9565 32.2485 43.9696C32.2588 43.9829 32.4133 43.9308 32.5919 43.854C33.4571 43.4818 34.5279 43.7536 34.9731 44.4585C35.0414 44.5667 35.1219 44.6563 35.1521 44.6576C35.1821 44.659 35.4823 44.462 35.819 44.2199L36.4311 43.7799L36.2779 43.579C35.9389 43.1345 35.8356 42.3675 36.0356 41.7804C36.2451 41.1656 36.9416 40.6158 37.6306 40.5214C38.2506 40.4365 38.9872 40.7549 39.3855 41.28L39.578 41.5338L40.0718 41.1868C40.3434 40.9959 40.6304 40.7936 40.7094 40.7373L40.8531 40.6347L40.6953 40.3956C40.4756 40.0627 40.3462 39.6648 40.3462 39.3214C40.3462 37.55 42.5315 36.6931 43.7132 38.0012C43.834 38.1349 43.9451 38.2813 43.9602 38.3264C43.9786 38.3815 44.1961 38.2597 44.6205 37.9566C44.9687 37.7081 45.2535 37.4929 45.2535 37.4783C45.2535 37.4638 45.1854 37.344 45.1021 37.212C44.5758 36.3783 44.7107 35.3572 45.4327 34.7086C45.7955 34.3828 46.2178 34.2235 46.7178 34.2239C47.3045 34.2244 47.6475 34.3724 48.0937 34.8176L48.4804 35.2034L49.0946 34.7693L49.709 34.3353L49.5027 33.9928C49.0495 33.2402 49.1532 32.2823 49.7572 31.6419C49.8793 31.5125 49.9671 31.3753 49.9525 31.337C49.9218 31.257 44.2921 23.3444 33.0466 7.57577C31.9136 5.98711 30.4201 3.89064 29.7276 2.91694C29.0352 1.94325 28.4499 1.12634 28.4271 1.10156C28.4042 1.07683 28.2072 1.12858 27.9893 1.2166C27.2682 1.50787 26.4857 1.36494 25.909 0.836687C25.778 0.716737 25.6507 0.618591 25.6262 0.618591C25.6017 0.618591 25.3256 0.801652 25.0129 1.02546ZM9.87503 3.76783C9.65662 4.10258 9.20298 4.43765 8.83338 4.53716C8.57298 4.60729 7.78595 4.58847 7.60394 4.50778C7.52387 4.47231 7.44579 4.59946 7.20341 5.1602L6.90239 5.85673L7.05383 5.95531C7.39529 6.1775 7.6783 6.4884 7.8413 6.82036C7.98646 7.11591 8.01398 7.25127 8.01398 7.66895C8.01398 8.08793 7.98659 8.22167 7.83937 8.52145C7.44828 9.31798 6.50869 9.76449 5.67327 9.55086L5.32031 9.46061L5.03656 10.1048C4.88052 10.4591 4.7538 10.7828 4.7551 10.8241C4.75635 10.8653 4.88238 10.9783 5.03525 11.0752C5.56947 11.4137 5.91416 12.1344 5.85484 12.7887C5.79073 13.4955 5.39026 14.0832 4.76281 14.3913C4.45675 14.5416 4.34674 14.5624 3.91422 14.5515C3.6409 14.5446 3.35025 14.5306 3.26832 14.5204C3.13414 14.5038 3.08979 14.5682 2.82082 15.1706L2.52222 15.8394L2.75231 15.9869C3.36392 16.379 3.6632 16.9217 3.6632 17.6388C3.6632 18.3911 3.28497 19.0138 2.61366 19.3668C2.33624 19.5128 2.23325 19.5314 1.7401 19.5252C1.43262 19.5213 1.12818 19.5076 1.06358 19.4947C0.967293 19.4755 0.891634 19.5932 0.643349 20.1485C0.476812 20.521 0.34798 20.8306 0.357049 20.8365C0.366118 20.8425 0.476377 20.9092 0.602103 20.9848C0.904119 21.1663 1.19458 21.5039 1.35205 21.8564C1.47399 22.1293 1.51113 22.6666 1.44846 23.2512C1.42758 23.4465 1.10172 23.2917 6.27469 25.5437C8.20108 26.3824 10.7346 27.4859 12.9834 28.4658C21.4945 32.1742 23.2229 32.9194 23.2503 32.8919C23.2675 32.8747 23.2537 32.825 23.2196 32.7815C23.1855 32.738 20.6469 29.1803 17.5781 24.8755C14.5093 20.5708 11.4415 16.2678 10.7607 15.3133C10.08 14.3588 9.51027 13.5447 9.49468 13.504C9.47909 13.4634 9.66594 13.285 9.90981 13.1076C10.2289 12.8756 10.3864 12.7122 10.4712 12.5254C10.6791 12.0674 10.6181 11.7954 10.1542 11.1124C10.0067 10.8952 9.92037 10.7121 9.95497 10.6899C9.98852 10.6682 10.566 10.2593 11.2383 9.78095C11.9107 9.30264 12.4925 8.9113 12.5315 8.9113C12.5704 8.9113 12.7307 9.09299 12.8878 9.31506C13.3441 9.96016 13.8547 10.144 14.4244 9.86816C14.7837 9.69423 15.0022 9.32637 15.0022 8.89552C15.0022 8.62028 14.9626 8.52083 14.6916 8.1157C14.5208 7.86027 14.381 7.6259 14.381 7.59478C14.381 7.56372 14.7987 7.24617 15.3093 6.88925C15.8198 6.53232 16.2307 6.21514 16.2225 6.18452C16.2092 6.13557 10.3961 3.56533 10.157 3.50278C10.0996 3.48774 9.99131 3.58956 9.87503 3.76783ZM40.9166 17.1187C41.0373 17.2852 41.9112 18.5116 42.8585 19.844C43.8058 21.1764 44.6258 22.3016 44.6806 22.3442C44.7355 22.387 44.8133 22.4219 44.8537 22.4219C44.9234 22.4219 45.502 21.2102 45.502 21.0642C45.502 21.0261 45.4048 20.9542 45.2859 20.9045C44.9507 20.7645 44.4766 20.2824 44.317 19.9194C44.1649 19.5735 44.1216 18.9816 44.2179 18.566L44.2693 18.344L42.6253 17.6251C40.5229 16.7058 40.643 16.7414 40.9166 17.1187Z" fill="#00B4BF"/>
</svg>
