<svg width="30" height="31" viewBox="0 0 30 31" fill="none" xmlns="http://www.w3.org/2000/svg">
<path d="M29.7012 9.96094C29.7012 9.96094 29.4082 7.89258 28.5059 6.98438C27.3633 5.78906 26.0859 5.7832 25.5 5.71289C21.3047 5.4082 15.0059 5.4082 15.0059 5.4082H14.9941C14.9941 5.4082 8.69531 5.4082 4.5 5.71289C3.91406 5.7832 2.63672 5.78906 1.49414 6.98438C0.591797 7.89258 0.304688 9.96094 0.304688 9.96094C0.304688 9.96094 0 12.3926 0 14.8184V17.0918C0 19.5176 0.298828 21.9492 0.298828 21.9492C0.298828 21.9492 0.591797 24.0176 1.48828 24.9258C2.63086 26.1211 4.13086 26.0801 4.79883 26.209C7.20117 26.4375 15 26.5078 15 26.5078C15 26.5078 21.3047 26.4961 25.5 26.1973C26.0859 26.127 27.3633 26.1211 28.5059 24.9258C29.4082 24.0176 29.7012 21.9492 29.7012 21.9492C29.7012 21.9492 30 19.5234 30 17.0918V14.8184C30 12.3926 29.7012 9.96094 29.7012 9.96094ZM11.9004 19.8516V11.4199L20.0039 15.6504L11.9004 19.8516Z" fill="white"/>
</svg>
